<svg width="100" height="32" viewBox="0 0 100 32" fill="none" xmlns="http://www.w3.org/2000/svg">
<path d="M79.5917 13.0412H93.575C94.461 13.0412 95.1793 13.7594 95.1793 14.6454C95.1793 15.5314 94.461 16.2497 93.575 16.2497H87.6472C87.4461 16.2497 87.2831 16.4127 87.2831 16.6138C87.2831 16.8149 87.4461 16.9779 87.6472 16.9779H93.4726C94.4152 16.9779 95.1793 17.742 95.1793 18.6845C95.1793 19.6271 94.4152 20.3912 93.4726 20.3912H75.4957C74.5532 20.3912 73.7891 19.6271 73.7891 18.6845C73.7891 17.742 74.5532 16.9779 75.4957 16.9779H81.3212C81.5222 16.9779 81.6852 16.8149 81.6852 16.6138C81.6852 16.4127 81.5222 16.2497 81.3212 16.2497H77.43C75.3364 16.2497 73.7891 14.7023 73.7891 12.6088V7.73343C73.7891 6.55522 74.7442 5.6001 75.9224 5.6001H93.575C94.461 5.6001 95.1793 6.31835 95.1793 7.20436C95.1793 8.09038 94.461 8.80863 93.575 8.80863H79.4097C79.196 8.80863 79.0228 8.98183 79.0228 9.19548C79.0228 9.40912 79.196 9.58232 79.4097 9.58232H93.8367C94.5782 9.58232 95.1793 10.1834 95.1793 10.9249C95.1793 11.6664 94.5782 12.2675 93.8367 12.2675H79.2504C79.1247 12.2675 79.0228 12.3694 79.0228 12.495C79.0228 12.8591 79.2276 13.0412 79.5917 13.0412ZM95.1793 24.2198C95.1793 25.398 94.2242 26.3532 93.046 26.3532H91.1895C90.5025 26.3532 89.9455 25.7962 89.9455 25.1092C89.9455 24.7657 89.667 24.4872 89.3235 24.4872H75.4957C74.5532 24.4872 73.7891 23.7231 73.7891 22.7805C73.7891 21.838 74.5532 21.0739 75.4957 21.0739H93.046C94.2242 21.0739 95.1793 22.029 95.1793 23.2072V24.2198Z" fill="#1F1F21"/>
<path d="M56.0605 13.0412H70.0438C70.9298 13.0412 71.648 13.7594 71.648 14.6454C71.648 15.5314 70.9298 16.2497 70.0438 16.2497H64.1159C63.9149 16.2497 63.7519 16.4127 63.7519 16.6138C63.7519 16.8149 63.9149 16.9779 64.1159 16.9779H69.9414C70.8839 16.9779 71.648 17.742 71.648 18.6845C71.648 19.6271 70.8839 20.3912 69.9414 20.3912H51.9645C51.0219 20.3912 50.2578 19.6271 50.2578 18.6845C50.2578 17.742 51.0219 16.9779 51.9645 16.9779H57.7899C57.991 16.9779 58.154 16.8149 58.154 16.6138C58.154 16.4127 57.991 16.2497 57.7899 16.2497H53.8987C51.8052 16.2497 50.2578 14.7023 50.2578 12.6088V7.73343C50.2578 6.55522 51.2129 5.6001 52.3911 5.6001H70.0438C70.9298 5.6001 71.648 6.31835 71.648 7.20436C71.648 8.09038 70.9298 8.80863 70.0438 8.80863H55.8784C55.6648 8.80863 55.4916 8.98183 55.4916 9.19548C55.4916 9.40912 55.6648 9.58232 55.8784 9.58232H70.3055C71.0469 9.58232 71.648 10.1834 71.648 10.9249C71.648 11.6664 71.0469 12.2675 70.3055 12.2675H55.7191C55.5935 12.2675 55.4916 12.3694 55.4916 12.495C55.4916 12.8591 55.6964 13.0412 56.0605 13.0412ZM71.648 24.2198C71.648 25.398 70.6929 26.3532 69.5147 26.3532H67.6582C66.9712 26.3532 66.4143 25.7962 66.4143 25.1092C66.4143 24.7657 66.1358 24.4872 65.7923 24.4872H51.9645C51.0219 24.4872 50.2578 23.7231 50.2578 22.7805C50.2578 21.838 51.0219 21.0739 51.9645 21.0739H69.5147C70.6929 21.0739 71.648 22.029 71.648 23.2072V24.2198Z" fill="#1F1F21"/>
<path d="M26.7266 20.6586C26.7266 19.4804 27.6817 18.5253 28.8599 18.5253H45.9834C47.1617 18.5253 48.1168 19.4804 48.1168 20.6586V24.2198C48.1168 25.398 47.1617 26.3532 45.9835 26.3532H30.3675C28.2739 26.3532 26.7266 24.8058 26.7266 22.7123V20.6586ZM32.3927 21.9386C32.1539 21.9386 31.9603 22.1322 31.9603 22.3709C31.9603 22.735 32.1651 22.9398 32.5292 22.9398H42.3824C42.6589 22.9398 42.883 22.7157 42.883 22.4392C42.883 22.1627 42.6589 21.9386 42.3824 21.9386H32.3927ZM26.7266 15.9311C26.7266 14.9886 27.4907 14.2245 28.4332 14.2245H46.4101C47.3527 14.2245 48.1168 14.9886 48.1168 15.9311C48.1168 16.8737 47.3527 17.6378 46.4101 17.6378H28.4332C27.4907 17.6378 26.7266 16.8737 26.7266 15.9311ZM32.5292 10.0147H46.4101C47.3527 10.0147 48.1168 10.7788 48.1168 11.7213C48.1168 12.6639 47.3527 13.428 46.4101 13.428H30.3675C28.2739 13.428 26.7266 11.8806 26.7266 9.78712V7.73343C26.7266 6.55523 27.6817 5.6001 28.8599 5.6001H46.4101C47.3527 5.6001 48.1168 6.3642 48.1168 7.30676C48.1168 8.24933 47.3527 9.01343 46.4101 9.01343H32.3927C32.1539 9.01343 31.9603 9.207 31.9603 9.44579C31.9603 9.80988 32.1651 10.0147 32.5292 10.0147Z" fill="#1F1F21"/>
<path d="M24.1343 20.3087C24.1343 23.647 21.4281 26.3532 18.0899 26.3532H8.75157C5.40651 26.3532 3.19922 23.8728 3.19922 20.1181C3.19922 16.3635 5.40651 13.8831 8.75157 13.8831H9.59353C10.8223 13.8831 11.6415 13.1322 11.6415 11.9944C11.6415 10.7429 10.8223 9.92365 9.59353 9.92365H5.78767C4.60946 9.92365 3.65433 8.96853 3.65433 7.79032V7.73343C3.65433 6.55522 4.60946 5.6001 5.78766 5.6001H11.9829C14.9183 5.6001 16.8753 8.08045 16.8753 11.8351C16.8753 15.5898 14.9183 18.0701 11.9829 18.0701H10.481C9.2522 18.0701 8.433 18.8666 8.433 20.0499C8.433 21.2332 9.2522 22.0296 10.481 22.0296H16.7672C17.9454 22.0296 18.9006 21.0745 18.9006 19.8963V7.73343C18.9006 6.55522 19.8557 5.6001 21.0339 5.6001H22.001C23.1792 5.6001 24.1343 6.55522 24.1343 7.73343V20.3087Z" fill="#1F1F21"/>
</svg>
