<svg width="68" height="19" viewBox="0 0 68 19" fill="none" xmlns="http://www.w3.org/2000/svg">
<path d="M15.3893 16.56C15.3893 17.2 14.9893 17.52 14.1893 17.52C13.4026 17.52 13.0093 17.2 13.0093 16.56V1.48C13.0093 0.839999 13.4026 0.519999 14.1893 0.519999C14.9893 0.519999 15.3893 0.839999 15.3893 1.48V16.56ZM9.6893 7.16C9.6893 7.46667 9.59596 7.74667 9.4093 8C9.23596 8.24 8.9093 8.36 8.4293 8.36H3.2093C3.11596 8.36 3.06263 8.38 3.0493 8.42C3.03596 8.46 3.0293 8.50667 3.0293 8.56V12.52C3.0293 12.5733 3.04263 12.62 3.0693 12.66C3.1093 12.7 3.15596 12.72 3.2093 12.72C3.99596 12.76 5.17596 12.6133 6.7493 12.28C8.33596 11.9333 9.57596 11.5733 10.4693 11.2C10.976 10.9733 11.3626 11.18 11.6293 11.82C11.896 12.46 11.696 12.94 11.0293 13.26C10.176 13.6733 8.88263 14.0667 7.1493 14.44C5.4293 14.8 3.68263 14.96 1.9093 14.92C1.57596 14.9067 1.28263 14.78 1.0293 14.54C0.775964 14.3 0.649297 14.0267 0.649297 13.72V7.54C0.649297 7.23333 0.735964 6.96 0.909297 6.72C1.09596 6.46667 1.4293 6.34 1.9093 6.34H7.1293C7.22263 6.34 7.27596 6.32 7.2893 6.28C7.30263 6.24 7.3093 6.19333 7.3093 6.14V3.18C7.3093 3.12667 7.30263 3.08 7.2893 3.04C7.27596 3 7.22263 2.98 7.1293 2.98H1.4093C0.915964 2.98 0.662631 2.64667 0.649297 1.98C0.649297 1.3 0.902631 0.959999 1.4093 0.959999H8.4293C8.9093 0.959999 9.23596 1.08667 9.4093 1.34C9.59596 1.58 9.6893 1.85333 9.6893 2.16V7.16ZM21.504 7.52C21.024 7.52 20.6907 7.4 20.504 7.16C20.3307 6.90667 20.244 6.62667 20.244 6.32V2.16C20.244 1.85333 20.3307 1.58 20.504 1.34C20.6907 1.08667 21.024 0.959999 21.504 0.959999H31.504C32.0107 0.959999 32.2707 1.3 32.284 1.98C32.2973 2.64667 32.0373 2.98 31.504 2.98H22.804C22.7107 2.98 22.6573 3 22.644 3.04C22.6307 3.08 22.624 3.12667 22.624 3.18V5.3C22.624 5.35333 22.6307 5.4 22.644 5.44C22.6573 5.48 22.7107 5.5 22.804 5.5H31.764C32.2707 5.5 32.5307 5.84 32.544 6.52C32.5573 7.18667 32.2973 7.52 31.764 7.52H21.504ZM18.704 10.66C18.2107 10.66 17.9573 10.3267 17.944 9.66C17.944 8.98 18.1973 8.64 18.704 8.64H33.724C34.244 8.64 34.4973 8.98 34.484 9.66C34.484 10.3267 34.2307 10.66 33.724 10.66H18.704ZM33.344 16.98C33.344 17.2867 33.2507 17.56 33.064 17.8C32.8907 18.0533 32.564 18.18 32.084 18.18H22.724C22.244 18.18 21.9107 18.0533 21.724 17.8C21.5507 17.56 21.464 17.2867 21.464 16.98V12.98C21.464 12.6733 21.5507 12.4 21.724 12.16C21.9107 11.9067 22.244 11.78 22.724 11.78H32.084C32.564 11.78 32.8907 11.9067 33.064 12.16C33.2507 12.4 33.344 12.6733 33.344 12.98V16.98ZM30.964 14C30.964 13.9467 30.9573 13.9 30.944 13.86C30.9307 13.82 30.8773 13.8 30.784 13.8H24.024C23.9307 13.8 23.8773 13.82 23.864 13.86C23.8507 13.9 23.844 13.9467 23.844 14V15.96C23.844 16.0133 23.8507 16.06 23.864 16.1C23.8773 16.14 23.9307 16.16 24.024 16.16H30.784C30.8773 16.16 30.9307 16.14 30.944 16.1C30.9573 16.06 30.964 16.0133 30.964 15.96V14ZM44.6129 10.52C44.6129 10.8267 44.5196 11.1067 44.3329 11.36C44.1596 11.6 43.8329 11.72 43.3529 11.72H35.7129C35.2062 11.72 34.9529 11.3933 34.9529 10.74C34.9662 10.0733 35.2196 9.74 35.7129 9.74H42.0529C42.1462 9.74 42.1996 9.72 42.2129 9.68C42.2262 9.64 42.2329 9.59333 42.2329 9.54V8.86H38.5129C38.0329 8.86 37.6996 8.74 37.5129 8.5C37.3396 8.24667 37.2529 7.96667 37.2529 7.66V2.16C37.2529 1.85333 37.3396 1.58 37.5129 1.34C37.6996 1.08667 38.0329 0.959999 38.5129 0.959999H48.5929C49.0996 0.959999 49.3596 1.29333 49.3729 1.96C49.3862 2.61333 49.1262 2.94 48.5929 2.94H39.8129C39.7196 2.94 39.6662 2.96 39.6529 3C39.6396 3.04 39.6329 3.08667 39.6329 3.14V3.92H48.4129C48.9196 3.92 49.1662 4.25333 49.1529 4.92C49.1529 5.57333 48.9062 5.9 48.4129 5.9H39.6329V6.68C39.6329 6.73333 39.6396 6.78 39.6529 6.82C39.6662 6.86 39.7196 6.88 39.8129 6.88H48.6729C49.1796 6.88 49.4396 7.21333 49.4529 7.88C49.4662 8.53333 49.2062 8.86 48.6729 8.86H44.6129V10.52ZM50.3729 17.52C50.3729 18.16 49.9729 18.48 49.1729 18.48C48.3862 18.48 47.9929 18.16 47.9929 17.52V14.78C47.9929 14.7267 47.9862 14.68 47.9729 14.64C47.9596 14.6 47.9062 14.58 47.8129 14.58H39.1529C38.6596 14.58 38.4062 14.2467 38.3929 13.58C38.3929 12.9 38.6462 12.56 39.1529 12.56H49.1129C49.5929 12.56 49.9196 12.6867 50.0929 12.94C50.2796 13.18 50.3729 13.4533 50.3729 13.76V17.52ZM61.6218 10.52C61.6218 10.8267 61.5285 11.1067 61.3418 11.36C61.1685 11.6 60.8418 11.72 60.3618 11.72H52.7218C52.2151 11.72 51.9618 11.3933 51.9618 10.74C51.9751 10.0733 52.2285 9.74 52.7218 9.74H59.0618C59.1551 9.74 59.2085 9.72 59.2218 9.68C59.2351 9.64 59.2418 9.59333 59.2418 9.54V8.86H55.5218C55.0418 8.86 54.7085 8.74 54.5218 8.5C54.3485 8.24667 54.2618 7.96667 54.2618 7.66V2.16C54.2618 1.85333 54.3485 1.58 54.5218 1.34C54.7085 1.08667 55.0418 0.959999 55.5218 0.959999H65.6018C66.1085 0.959999 66.3685 1.29333 66.3818 1.96C66.3951 2.61333 66.1351 2.94 65.6018 2.94H56.8218C56.7285 2.94 56.6751 2.96 56.6618 3C56.6485 3.04 56.6418 3.08667 56.6418 3.14V3.92H65.4218C65.9285 3.92 66.1751 4.25333 66.1618 4.92C66.1618 5.57333 65.9151 5.9 65.4218 5.9H56.6418V6.68C56.6418 6.73333 56.6485 6.78 56.6618 6.82C56.6751 6.86 56.7285 6.88 56.8218 6.88H65.6818C66.1885 6.88 66.4485 7.21333 66.4618 7.88C66.4751 8.53333 66.2151 8.86 65.6818 8.86H61.6218V10.52ZM67.3818 17.52C67.3818 18.16 66.9818 18.48 66.1818 18.48C65.3951 18.48 65.0018 18.16 65.0018 17.52V14.78C65.0018 14.7267 64.9951 14.68 64.9818 14.64C64.9685 14.6 64.9151 14.58 64.8218 14.58H56.1618C55.6685 14.58 55.4151 14.2467 55.4018 13.58C55.4018 12.9 55.6551 12.56 56.1618 12.56H66.1218C66.6018 12.56 66.9285 12.6867 67.1018 12.94C67.2885 13.18 67.3818 13.4533 67.3818 13.76V17.52Z" fill="black"/>
</svg>
