<svg width="24" height="24" viewBox="0 0 24 24" fill="none" xmlns="http://www.w3.org/2000/svg">
<path d="M3.75366 21.5419L14.2596 17.4682C14.7755 17.2682 14.9046 16.5974 14.4997 16.2202L7.59579 9.78801C7.19833 9.4177 6.55127 9.57964 6.37508 10.0935L2.77305 20.5994C2.5662 21.2028 3.159 21.7725 3.75366 21.5419Z" fill="#FED34F"/>
<path d="M10.5 8.25C11.583 7.25 13.4892 4.65 12.4495 2.25" stroke="#E14D34" stroke-width="1.125" stroke-linecap="round"/>
<path d="M21.0002 11.9333C19.2502 11.3499 16.9168 11.9332 15.7504 13.6832" stroke="#65AADE" stroke-width="1.125" stroke-linecap="round"/>
<path d="M12.75 10.98C13.0361 10.6967 13.7679 10.9011 14.2379 11.0753C14.4128 11.1402 14.603 10.9863 14.5642 10.8038L14.2975 9.54956C14.2629 9.38706 14.4104 9.24444 14.5716 9.28435L15.6042 9.5399C15.769 9.58071 15.918 9.43109 15.8764 9.26641L15.607 8.19955C15.5697 8.05214 15.6864 7.911 15.8382 7.91984L17.0663 7.99136C17.222 8.00043 17.3395 7.85217 17.2951 7.70266L16.9538 6.55389C16.904 6.38647 17.0557 6.22868 17.225 6.27177L18.4695 6.58859C18.6117 6.6248 18.7357 6.51803 18.6955 6.37686C18.5269 5.78461 18.0651 4.72603 18.75 4.5" stroke="#81C953" stroke-width="1.125" stroke-linecap="round"/>
<circle cx="8.25" cy="6" r="0.75" fill="#81C953"/>
<mask id="mask0_1502_5129" style="mask-type:alpha" maskUnits="userSpaceOnUse" x="2" y="9" width="13" height="13">
<path d="M3.75366 21.5419L14.2596 17.4682C14.7755 17.2682 14.9046 16.5974 14.4997 16.2202L7.59579 9.78801C7.19833 9.4177 6.55127 9.57964 6.37508 10.0935L2.77305 20.5994C2.5662 21.2028 3.159 21.7725 3.75366 21.5419Z" fill="#FED34F"/>
</mask>
<g mask="url(#mask0_1502_5129)">
<rect x="0.75" y="12.75" width="14.25" height="0.75" fill="white"/>
<rect x="0.75" y="15.75" width="14.25" height="0.75" fill="white"/>
<rect x="0.75" y="18.75" width="14.25" height="0.75" fill="white"/>
</g>
<circle cx="15.75" cy="3.75" r="0.75" fill="#E14D34"/>
<circle cx="18" cy="15.75" r="0.75" fill="#65AADE"/>
<circle cx="20.25" cy="9" r="0.75" fill="#FED34F"/>
</svg>
