<svg width="24" height="24" viewBox="0 0 24 24" fill="none" xmlns="http://www.w3.org/2000/svg">
<path fill-rule="evenodd" clip-rule="evenodd" d="M16.7142 4.08554L15.9693 1.70172C15.8388 1.28425 15.4522 1 15.0148 1H8.98519C8.54781 1 8.16117 1.28425 8.03071 1.70172L7.28577 4.08554C5.97374 4.40597 5 5.58927 5 7V17C5 18.4107 5.97374 19.594 7.28577 19.9145L8.03071 22.2983C8.16117 22.7157 8.54781 23 8.98519 23H15.0148C15.4522 23 15.8388 22.7157 15.9693 22.2983L16.7142 19.9145C18.0263 19.594 19 18.4107 19 17V12C19.5523 12 20 11.5523 20 11V9C20 8.44772 19.5523 8 19 8V7C19 5.58927 18.0263 4.40597 16.7142 4.08554ZM7 7C7 6.44772 7.44772 6 8 6H16C16.5523 6 17 6.44772 17 7V17C17 17.5523 16.5523 18 16 18H8C7.44772 18 7 17.5523 7 17V7Z" fill="#34C759"/>
<path d="M9 12L11 14L15 10" stroke="#34C759" stroke-width="1.5" stroke-linecap="round" stroke-linejoin="round"/>
</svg>
