<svg width="72" height="36" viewBox="0 0 72 36" fill="none" xmlns="http://www.w3.org/2000/svg">
<path d="M1 18C1 8.61116 8.61116 1 18 1H54C63.3888 1 71 8.61116 71 18C71 27.3888 63.3888 35 54 35H18C8.61116 35 1 27.3888 1 18Z" fill="white"/>
<path d="M1 18C1 8.61116 8.61116 1 18 1H54C63.3888 1 71 8.61116 71 18C71 27.3888 63.3888 35 54 35H18C8.61116 35 1 27.3888 1 18Z" stroke="#2A6FF3" stroke-width="2"/>
<path d="M13 16.7499L18.1528 23L27 13" stroke="#2A6FF3" stroke-width="2" stroke-linecap="round" stroke-linejoin="round"/>
<path d="M44.9844 18.3438C44.9844 19.5208 44.7656 20.5495 44.3281 21.4297C43.8906 22.3047 43.2839 22.9792 42.5078 23.4531C41.737 23.9219 40.8646 24.1562 39.8906 24.1562C38.9062 24.1562 38.026 23.9219 37.25 23.4531C36.4792 22.9792 35.875 22.3047 35.4375 21.4297C35 20.5495 34.7812 19.5208 34.7812 18.3438C34.7812 17.1615 35 16.1328 35.4375 15.2578C35.875 14.3776 36.4792 13.7031 37.25 13.2344C38.026 12.7656 38.9062 12.5312 39.8906 12.5312C40.8646 12.5312 41.737 12.7656 42.5078 13.2344C43.2839 13.7031 43.8906 14.3776 44.3281 15.2578C44.7656 16.1328 44.9844 17.1615 44.9844 18.3438ZM43.2812 18.3438C43.2812 17.4479 43.1354 16.6823 42.8438 16.0469C42.5521 15.4115 42.1484 14.9297 41.6328 14.6016C41.1224 14.2734 40.5417 14.1094 39.8906 14.1094C39.2344 14.1094 38.6484 14.2734 38.1328 14.6016C37.6172 14.9297 37.2135 15.4115 36.9219 16.0469C36.6302 16.6823 36.4844 17.4479 36.4844 18.3438C36.4844 19.2396 36.6302 20.0052 36.9219 20.6406C37.2135 21.276 37.6172 21.7578 38.1328 22.0859C38.6484 22.4141 39.2344 22.5781 39.8906 22.5781C40.5417 22.5781 41.1224 22.4141 41.6328 22.0859C42.1484 21.7578 42.5521 21.276 42.8438 20.6406C43.1354 20 43.2812 19.2344 43.2812 18.3438ZM55.9509 24H54.3728L48.6384 15.7344H48.5446V24H46.8259V12.6875H48.4196L54.154 20.9688H54.2634V12.6875H55.9509V24Z" fill="#2A6FF3"/>
</svg>
