<svg width="24" height="24" viewBox="0 0 24 24" fill="none" xmlns="http://www.w3.org/2000/svg">
<path d="M17.7071 9.70711L18.2374 9.17678L17.7071 9.70711ZM12.2929 4.29289L12.8232 3.76256L12.2929 4.29289ZM7 4.75H11.5858V3.25H7V4.75ZM6.75 19V5H5.25V19H6.75ZM17 19.25H7V20.75H17V19.25ZM17.25 10.4142V19H18.75V10.4142H17.25ZM18.2374 9.17678L12.8232 3.76256L11.7626 4.82322L17.1768 10.2374L18.2374 9.17678ZM18.75 10.4142C18.75 9.95008 18.5656 9.50497 18.2374 9.17678L17.1768 10.2374C17.2237 10.2843 17.25 10.3479 17.25 10.4142H18.75ZM17 20.75C17.9665 20.75 18.75 19.9665 18.75 19H17.25C17.25 19.1381 17.1381 19.25 17 19.25V20.75ZM5.25 19C5.25 19.9665 6.0335 20.75 7 20.75V19.25C6.86193 19.25 6.75 19.1381 6.75 19H5.25ZM11.5858 4.75C11.6521 4.75 11.7157 4.77634 11.7626 4.82322L12.8232 3.76256C12.495 3.43437 12.0499 3.25 11.5858 3.25V4.75ZM7 3.25C6.0335 3.25 5.25 4.0335 5.25 5H6.75C6.75 4.86193 6.86193 4.75 7 4.75V3.25Z" fill="#1A1C22"/>
<path d="M12 4V9C12 9.55228 12.4477 10 13 10H18" stroke="#1A1C22" stroke-width="1.5" stroke-linejoin="round"/>
</svg>
