<svg width="24" height="24" viewBox="0 0 24 24" fill="none" xmlns="http://www.w3.org/2000/svg">
<path fill-rule="evenodd" clip-rule="evenodd" d="M22 12C22 17.5228 17.5228 22 12 22C6.47715 22 2 17.5228 2 12C2 6.47715 6.47715 2 12 2C17.5228 2 22 6.47715 22 12ZM15.5357 8.46443C15.9262 8.85496 15.9262 9.48812 15.5357 9.87864L13.4142 12.0001L15.5355 14.1214C15.926 14.5119 15.926 15.1451 15.5355 15.5356C15.145 15.9261 14.5118 15.9261 14.1213 15.5356L12 13.4143L9.87887 15.5355C9.48834 15.926 8.85518 15.926 8.46465 15.5355C8.07413 15.145 8.07413 14.5118 8.46465 14.1213L10.5858 12.0001L8.46443 9.87874C8.07391 9.48821 8.07391 8.85505 8.46443 8.46452C8.85496 8.074 9.48812 8.074 9.87864 8.46452L12 10.5859L14.1215 8.46443C14.512 8.07391 15.1452 8.07391 15.5357 8.46443Z" fill="#1A1C22"/>
</svg>
