<svg width="24" height="24" viewBox="0 0 24 24" fill="none" xmlns="http://www.w3.org/2000/svg">
<circle cx="12" cy="12" r="3" stroke="#393A3D" stroke-width="2"/>
<path d="M13.7038 3.73236L12.7403 4L12.7403 4L13.7038 3.73236ZM14.1493 5.33609L13.1857 5.60374C13.2757 5.92771 13.5225 6.18476 13.8425 6.28789L14.1493 5.33609ZM16.6948 6.80759L16.0239 7.54915C16.2732 7.77472 16.6192 7.85989 16.9447 7.77585L16.6948 6.80759ZM18.3086 6.39095L18.5586 7.35921V7.35921L18.3086 6.39095ZM19.4246 6.85921L20.2906 6.35921V6.3592L19.4246 6.85921ZM20.1645 8.14078L19.2985 8.64077L20.1645 8.14078ZM20.012 9.34138L19.2985 8.64077L19.2985 8.64078L20.012 9.34138ZM18.8454 10.5295L18.1319 9.82893C17.8966 10.0685 17.7973 10.4102 17.8675 10.7386L18.8454 10.5295ZM18.8454 13.4704L17.8675 13.2614C17.7973 13.5898 17.8966 13.9314 18.1319 14.1711L18.8454 13.4704ZM20.012 14.6586L19.2985 15.3592L19.2985 15.3592L20.012 14.6586ZM20.1645 15.8592L21.0305 16.3592L20.1645 15.8592ZM19.4246 17.1408L18.5586 16.6408L18.5586 16.6408L19.4246 17.1408ZM18.3086 17.609L18.0586 18.5773L18.3086 17.609ZM16.6948 17.1924L16.9448 16.2241C16.6192 16.1401 16.2732 16.2253 16.0239 16.4508L16.6948 17.1924ZM14.1493 18.6639L13.8425 17.7121C13.5225 17.8152 13.2757 18.0723 13.1857 18.3963L14.1493 18.6639ZM13.7038 20.2676L14.6673 20.5353V20.5353L13.7038 20.2676ZM10.2969 20.2676L11.2604 20V20L10.2969 20.2676ZM9.85147 18.6641L10.815 18.3964C10.725 18.0724 10.4782 17.8154 10.1581 17.7122L9.85147 18.6641ZM7.30556 17.1925L7.97643 16.4509C7.72711 16.2253 7.38112 16.1402 7.05558 16.2242L7.30556 17.1925ZM5.69206 17.609L5.94203 18.5773H5.94203L5.69206 17.609ZM4.57606 17.1408L5.44208 16.6408H5.44208L4.57606 17.1408ZM3.83614 15.8592L2.97012 16.3592H2.97012L3.83614 15.8592ZM3.98863 14.6586L4.70217 15.3592H4.70217L3.98863 14.6586ZM5.1549 13.4708L5.86845 14.1714C6.10372 13.9318 6.20302 13.5901 6.1328 13.2617L5.1549 13.4708ZM5.15491 10.5292L6.1328 10.7383C6.20302 10.4099 6.10373 10.0682 5.86845 9.82859L5.15491 10.5292ZM3.98863 9.34138L3.27508 10.042L3.27508 10.042L3.98863 9.34138ZM3.83615 8.14077L4.70217 8.64077L3.83615 8.14077ZM4.57606 6.8592L5.44209 7.3592L4.57606 6.8592ZM5.69206 6.39095L5.44209 7.3592L5.44209 7.35921L5.69206 6.39095ZM7.30557 6.80751L7.0556 7.77576C7.38114 7.85981 7.72712 7.77464 7.97645 7.54908L7.30557 6.80751ZM9.85147 5.33594L10.1581 6.28776C10.4782 6.18464 10.725 5.92758 10.815 5.60358L9.85147 5.33594ZM10.2969 3.73236L9.33339 3.46471V3.46471L10.2969 3.73236ZM12.7403 2H11.2604V4H12.7403V2ZM14.6673 3.46471C14.4268 2.59907 13.6387 2 12.7403 2V4L12.7403 4L14.6673 3.46471ZM15.1128 5.06845L14.6673 3.46471L12.7403 4L13.1857 5.60374L15.1128 5.06845ZM17.3657 6.06603C16.5363 5.31574 15.5479 4.73618 14.456 4.3843L13.8425 6.28789C14.6593 6.55109 15.4005 6.98522 16.0239 7.54915L17.3657 6.06603ZM18.0586 5.4227L16.4448 5.83934L16.9447 7.77585L18.5586 7.35921L18.0586 5.4227ZM20.2906 6.3592C19.8414 5.58115 18.9285 5.19812 18.0586 5.4227L18.5586 7.35921L18.5586 7.35921L20.2906 6.3592ZM21.0305 7.64078L20.2906 6.35921L18.5586 7.35921L19.2985 8.64077L21.0305 7.64078ZM20.7256 10.042C21.355 9.40093 21.4797 8.41883 21.0305 7.64078L19.2985 8.64077L19.2985 8.64077L20.7256 10.042ZM19.559 11.2302L20.7256 10.042L19.2985 8.64078L18.1319 9.82893L19.559 11.2302ZM20.0001 12C20.0001 11.4249 19.9393 10.8629 19.8233 10.3205L17.8675 10.7386C17.9543 11.1444 18.0001 11.5663 18.0001 12H20.0001ZM19.8233 13.6795C19.9393 13.1371 20.0001 12.5751 20.0001 12H18.0001C18.0001 12.4337 17.9543 12.8555 17.8675 13.2614L19.8233 13.6795ZM20.7256 13.958L19.559 12.7698L18.1319 14.1711L19.2985 15.3592L20.7256 13.958ZM21.0305 16.3592C21.4797 15.5812 21.355 14.599 20.7256 13.958L19.2985 15.3592V15.3592L21.0305 16.3592ZM20.2906 17.6408L21.0305 16.3592L19.2985 15.3592L18.5586 16.6408L20.2906 17.6408ZM18.0586 18.5773C18.9285 18.8019 19.8414 18.4188 20.2906 17.6408L18.5586 16.6408L18.5586 16.6408L18.0586 18.5773ZM16.4448 18.1606L18.0586 18.5773L18.5586 16.6408L16.9448 16.2241L16.4448 18.1606ZM14.456 19.6157C15.5479 19.2638 16.5363 18.6843 17.3657 17.9339L16.0239 16.4508C15.4006 17.0148 14.6593 17.4489 13.8425 17.7121L14.456 19.6157ZM14.6673 20.5353L15.1128 18.9316L13.1857 18.3963L12.7403 20L14.6673 20.5353ZM12.7403 22C13.6387 22 14.4268 21.4009 14.6673 20.5353L12.7403 20L12.7403 20V22ZM11.2604 22H12.7403V20H11.2604V22ZM9.33339 20.5353C9.57385 21.4009 10.362 22 11.2604 22V20H11.2604L9.33339 20.5353ZM8.88795 18.9317L9.33339 20.5353L11.2604 20L10.815 18.3964L8.88795 18.9317ZM6.63468 17.934C7.46414 18.6844 8.45271 19.264 9.54482 19.6159L10.1581 17.7122C9.34127 17.4491 8.59986 17.0149 7.97643 16.4509L6.63468 17.934ZM5.94203 18.5773L7.55553 18.1607L7.05558 16.2242L5.44209 16.6408L5.94203 18.5773ZM3.71003 17.6408C4.15924 18.4188 5.07214 18.8019 5.94203 18.5773L5.44209 16.6408L5.44208 16.6408L3.71003 17.6408ZM2.97012 16.3592L3.71003 17.6408L5.44208 16.6408L4.70217 15.3592L2.97012 16.3592ZM3.27508 13.958C2.64564 14.599 2.52091 15.5812 2.97012 16.3592L4.70217 15.3592L3.27508 13.958ZM4.44136 12.7702L3.27508 13.958L4.70217 15.3592L5.86845 14.1714L4.44136 12.7702ZM4.00013 12C4.00013 12.5752 4.061 13.1373 4.17701 13.6799L6.1328 13.2617C6.046 12.8558 6.00013 12.4338 6.00013 12H4.00013ZM4.17701 10.3201C4.061 10.8626 4.00013 11.4248 4.00013 12H6.00013C6.00013 11.5662 6.046 11.1442 6.1328 10.7383L4.17701 10.3201ZM3.27508 10.042L4.44136 11.2298L5.86845 9.82859L4.70217 8.64077L3.27508 10.042ZM2.97012 7.64077C2.52091 8.41883 2.64564 9.40093 3.27508 10.042L4.70217 8.64077L4.70217 8.64077L2.97012 7.64077ZM3.71003 6.3592L2.97012 7.64077L4.70217 8.64077L5.44209 7.3592L3.71003 6.3592ZM5.94203 5.4227C5.07214 5.19812 4.15924 5.58115 3.71003 6.3592L5.44209 7.3592H5.44209L5.94203 5.4227ZM7.55555 5.83926L5.94203 5.4227L5.44209 7.35921L7.0556 7.77576L7.55555 5.83926ZM9.54482 4.38412C8.45272 4.73597 7.46415 5.31556 6.6347 6.06594L7.97645 7.54908C8.59987 6.98509 9.34128 6.55093 10.1581 6.28776L9.54482 4.38412ZM9.33339 3.46471L8.88795 5.0683L10.815 5.60358L11.2604 4L9.33339 3.46471ZM11.2604 2C10.362 2 9.57385 2.59908 9.33339 3.46471L11.2604 4L11.2604 4V2Z" fill="#393A3D"/>
</svg>
