<svg width="24" height="24" viewBox="0 0 24 24" fill="none" xmlns="http://www.w3.org/2000/svg">
<circle cx="12" cy="12" r="10" fill="#E14D34"/>
<path fill-rule="evenodd" clip-rule="evenodd" d="M15.5357 8.46443C15.9262 8.85496 15.9262 9.48812 15.5357 9.87864L9.87887 15.5355C9.48834 15.926 8.85518 15.926 8.46465 15.5355C8.07413 15.145 8.07413 14.5118 8.46465 14.1213L14.1215 8.46443C14.512 8.07391 15.1452 8.07391 15.5357 8.46443Z" fill="white"/>
<path fill-rule="evenodd" clip-rule="evenodd" d="M8.46443 8.46452C8.85496 8.074 9.48812 8.074 9.87864 8.46452L15.5355 14.1214C15.926 14.5119 15.926 15.1451 15.5355 15.5356C15.145 15.9261 14.5118 15.9261 14.1213 15.5356L8.46443 9.87874C8.07391 9.48821 8.07391 8.85505 8.46443 8.46452Z" fill="white"/>
</svg>
