<svg width="24" height="24" viewBox="0 0 24 24" fill="none" xmlns="http://www.w3.org/2000/svg">
<path d="M8.22792 7.31623L7.27924 7L8.22792 7.31623ZM8.77208 5.68377L9.72076 6L8.77208 5.68377ZM9.72076 6H14.2792V4H9.72076V6ZM9.17661 7.63246L9.72076 6L7.82339 5.36754L7.27924 7L9.17661 7.63246ZM5 9H7.27924V7H5V9ZM5 18V9H3V18H5ZM19 18H5V20H19V18ZM19 9V18H21V9H19ZM16.7208 9H19V7H16.7208V9ZM14.2792 6L14.8234 7.63246L16.7208 7L16.1766 5.36754L14.2792 6ZM16.7208 7V7L14.8234 7.63246C15.0956 8.44914 15.8599 9 16.7208 9V7ZM21 9C21 7.89543 20.1046 7 19 7V9H21ZM19 20C20.1046 20 21 19.1046 21 18H19V20ZM3 18C3 19.1046 3.89543 20 5 20V18H3ZM5 7C3.89543 7 3 7.89543 3 9H5V9V7ZM7.27924 7V9C8.1401 9 8.90438 8.44914 9.17661 7.63246L7.27924 7ZM14.2792 6L16.1766 5.36754C15.9044 4.55086 15.1401 4 14.2792 4V6ZM9.72076 4C8.8599 4 8.09562 4.55086 7.82339 5.36754L9.72076 6V6V4Z" fill="#1A1C22"/>
<circle cx="12" cy="13" r="3" stroke="#1A1C22" stroke-width="2"/>
</svg>
