<svg width="24" height="24" viewBox="0 0 24 24" fill="none" xmlns="http://www.w3.org/2000/svg">
<path fill-rule="evenodd" clip-rule="evenodd" d="M15.9693 1.70172L16.7142 4.08554C18.0263 4.40597 19 5.58927 19 7V8C19.5523 8 20 8.44772 20 9V11C20 11.5523 19.5523 12 19 12V16.5251L17 14.5251V7C17 6.44772 16.5523 6 16 6H8.47487L6.74787 4.273C6.91909 4.19425 7.099 4.13115 7.28577 4.08554L8.03071 1.70172C8.16117 1.28425 8.54781 1 8.98519 1H15.0148C15.4522 1 15.8388 1.28425 15.9693 1.70172ZM5 7.47487V17C5 18.4107 5.97374 19.594 7.28577 19.9145L8.03071 22.2983C8.16117 22.7157 8.54781 23 8.98519 23H15.0148C15.4522 23 15.8388 22.7157 15.9693 22.2983L16.7142 19.9145C16.901 19.8688 17.0809 19.8057 17.2521 19.727L15.5251 18H8C7.44772 18 7 17.5523 7 17V9.47487L5 7.47487Z" fill="#FF3B30"/>
<path d="M4 4L20 20" stroke="#FF3B30" stroke-width="2" stroke-linecap="round" stroke-linejoin="round"/>
</svg>
