<svg width="72" height="36" viewBox="0 0 72 36" fill="none" xmlns="http://www.w3.org/2000/svg">
<path d="M1 18C1 8.61116 8.61116 1 18 1H54C63.3888 1 71 8.61116 71 18C71 27.3888 63.3888 35 54 35H18C8.61116 35 1 27.3888 1 18Z" fill="white"/>
<path d="M1 18C1 8.61116 8.61116 1 18 1H54C63.3888 1 71 8.61116 71 18C71 27.3888 63.3888 35 54 35H18C8.61116 35 1 27.3888 1 18Z" stroke="#2A6FF3" stroke-width="2"/>
<path d="M13 16.7499L18.1528 23L27 13" stroke="#2A6FF3" stroke-width="2" stroke-linecap="round" stroke-linejoin="round"/>
<path d="M44.9844 18.3438C44.9844 21.9531 42.8125 24.1562 39.8906 24.1562C36.9375 24.1562 34.7812 21.9531 34.7812 18.3438C34.7812 14.7188 36.9375 12.5312 39.8906 12.5312C42.8125 12.5312 44.9844 14.7188 44.9844 18.3438ZM43.2812 18.3438C43.2812 15.5938 41.8281 14.1094 39.8906 14.1094C37.9375 14.1094 36.4844 15.5938 36.4844 18.3438C36.4844 21.0938 37.9375 22.5781 39.8906 22.5781C41.8281 22.5781 43.2812 21.0938 43.2812 18.3438ZM55.9509 12.6875V24H54.3728L48.6384 15.7344H48.5446V24H46.8259V12.6875H48.4196L54.154 20.9688H54.2634V12.6875H55.9509Z" fill="#2A6FF3"/>
</svg>
